<svg width="17" height="17" viewBox="0 0 17 17" fill="none" xmlns="http://www.w3.org/2000/svg">
<path d="M9.80008 3.89839C9.8002 3.49881 9.9137 3.10695 10.1282 2.76564C10.3427 2.42433 10.6499 2.1467 11.0162 1.9631C11.3825 1.77949 11.7939 1.69697 12.2054 1.72456C12.6169 1.75215 13.0126 1.88879 13.3494 2.11953C13.6861 2.35028 13.9509 2.66626 14.1148 3.03294C14.2787 3.39961 14.3354 3.80288 14.2787 4.19867C14.222 4.59445 14.0541 4.96753 13.7933 5.27711C13.5326 5.5867 13.189 5.82088 12.8001 5.95408V6.56245C12.8001 7.20477 12.5367 7.82079 12.0678 8.27498C11.599 8.72917 10.9631 8.98433 10.3001 8.98433H6.30008C6.03486 8.98433 5.78051 9.08639 5.59297 9.26807C5.40543 9.44974 5.30008 9.69615 5.30008 9.95308V11.0458C5.80077 11.2172 6.22278 11.5546 6.49153 11.9983C6.76028 12.442 6.85845 12.9634 6.76869 13.4705C6.67893 13.9775 6.40703 14.4375 6.00103 14.7691C5.59504 15.1007 5.08111 15.2825 4.55008 15.2825C4.01905 15.2825 3.50511 15.1007 3.09912 14.7691C2.69313 14.4375 2.42122 13.9775 2.33146 13.4705C2.24171 12.9634 2.33988 12.442 2.60862 11.9983C2.87737 11.5546 3.29939 11.2172 3.80008 11.0458V5.95408C3.29967 5.78268 2.87791 5.44543 2.60935 5.00193C2.3408 4.55843 2.24273 4.03723 2.33248 3.53046C2.42223 3.02369 2.69403 2.56396 3.09983 2.23255C3.50563 1.90113 4.01931 1.71936 4.55008 1.71936C5.08084 1.71936 5.59452 1.90113 6.00032 2.23255C6.40612 2.56396 6.67792 3.02369 6.76767 3.53046C6.85743 4.03723 6.75936 4.55843 6.4908 5.00193C6.22224 5.44543 5.80049 5.78268 5.30008 5.95408V7.7327C5.61548 7.5994 5.95596 7.53079 6.30008 7.5312H10.3001C10.5653 7.5312 10.8196 7.42914 11.0072 7.24746C11.1947 7.06579 11.3001 6.81938 11.3001 6.56245V5.95408C10.8613 5.80379 10.4814 5.52539 10.2128 5.15722C9.94412 4.78906 9.79994 4.34925 9.80008 3.89839ZM3.80008 3.89839C3.80008 4.09109 3.87909 4.27589 4.01975 4.41215C4.1604 4.5484 4.35116 4.62495 4.55008 4.62495C4.74899 4.62495 4.93975 4.5484 5.08041 4.41215C5.22106 4.27589 5.30008 4.09109 5.30008 3.89839C5.30008 3.70569 5.22106 3.52089 5.08041 3.38463C4.93975 3.24838 4.74899 3.17183 4.55008 3.17183C4.35116 3.17183 4.1604 3.24838 4.01975 3.38463C3.87909 3.52089 3.80008 3.70569 3.80008 3.89839ZM12.0501 3.17183C11.8512 3.17183 11.6604 3.24838 11.5197 3.38463C11.3791 3.52089 11.3001 3.70569 11.3001 3.89839C11.3001 4.09109 11.3791 4.27589 11.5197 4.41215C11.6604 4.5484 11.8512 4.62495 12.0501 4.62495C12.249 4.62495 12.4398 4.5484 12.5804 4.41215C12.7211 4.27589 12.8001 4.09109 12.8001 3.89839C12.8001 3.70569 12.7211 3.52089 12.5804 3.38463C12.4398 3.24838 12.249 3.17183 12.0501 3.17183ZM4.55008 12.375C4.35116 12.375 4.1604 12.4515 4.01975 12.5878C3.87909 12.724 3.80008 12.9088 3.80008 13.1015C3.80008 13.2942 3.87909 13.479 4.01975 13.6153C4.1604 13.7515 4.35116 13.8281 4.55008 13.8281C4.74899 13.8281 4.93975 13.7515 5.08041 13.6153C5.22106 13.479 5.30008 13.2942 5.30008 13.1015C5.30008 12.9088 5.22106 12.724 5.08041 12.5878C4.93975 12.4515 4.74899 12.375 4.55008 12.375Z" fill="#848D97"/>
</svg>
