<svg width="16" height="17" viewBox="0 0 16 17" fill="none" xmlns="http://www.w3.org/2000/svg">
<g clip-path="url(#clip0_17_102)">
<path d="M0 7.5C0 6.534 0.784 5.75 1.75 5.75H3.25C3.44891 5.75 3.63968 5.82902 3.78033 5.96967C3.92098 6.11032 4 6.30109 4 6.5C4 6.69891 3.92098 6.88968 3.78033 7.03033C3.63968 7.17098 3.44891 7.25 3.25 7.25H1.75C1.6837 7.25 1.62011 7.27634 1.57322 7.32322C1.52634 7.37011 1.5 7.4337 1.5 7.5V15C1.5 15.138 1.612 15.25 1.75 15.25H9.25C9.3163 15.25 9.37989 15.2237 9.42678 15.1768C9.47366 15.1299 9.5 15.0663 9.5 15V13.5C9.5 13.3011 9.57902 13.1103 9.71967 12.9697C9.86032 12.829 10.0511 12.75 10.25 12.75C10.4489 12.75 10.6397 12.829 10.7803 12.9697C10.921 13.1103 11 13.3011 11 13.5V15C11 15.4641 10.8156 15.9092 10.4874 16.2374C10.1592 16.5656 9.71413 16.75 9.25 16.75H1.75C1.28587 16.75 0.840752 16.5656 0.512563 16.2374C0.184374 15.9092 0 15.4641 0 15L0 7.5Z" fill="#848D97"/>
<path d="M5 2.5C5 1.534 5.784 0.75 6.75 0.75H14.25C15.216 0.75 16 1.534 16 2.5V10C16 10.4641 15.8156 10.9092 15.4874 11.2374C15.1592 11.5656 14.7141 11.75 14.25 11.75H6.75C6.28587 11.75 5.84075 11.5656 5.51256 11.2374C5.18437 10.9092 5 10.4641 5 10V2.5ZM6.75 2.25C6.6837 2.25 6.62011 2.27634 6.57322 2.32322C6.52634 2.37011 6.5 2.4337 6.5 2.5V10C6.5 10.138 6.612 10.25 6.75 10.25H14.25C14.3163 10.25 14.3799 10.2237 14.4268 10.1768C14.4737 10.1299 14.5 10.0663 14.5 10V2.5C14.5 2.4337 14.4737 2.37011 14.4268 2.32322C14.3799 2.27634 14.3163 2.25 14.25 2.25H6.75Z" fill="#848D97"/>
</g>
<defs>
<clipPath id="clip0_17_102">
<rect width="16" height="16" fill="white" transform="translate(0 0.75)"/>
</clipPath>
</defs>
</svg>
