<svg width="16" height="16" viewBox="0 0 16 16" fill="none" xmlns="http://www.w3.org/2000/svg">
<g clip-path="url(#clip0_225_2)">
<path d="M2.34306 13.6569C1.60017 12.914 1.01089 12.032 0.608871 11.0613C0.206848 10.0906 -4.64215e-05 9.05024 7.81267e-09 7.9996C9.3776e-05 5.87772 0.843097 3.84278 2.34356 2.34245C3.84402 0.842119 5.87903 -0.000704112 8.00091 -0.000610344C10.1228 -0.000516576 12.1577 0.842487 13.6581 2.34295C15.1584 3.84341 16.0012 5.87842 16.0011 8.0003C16.001 10.1222 15.158 12.1571 13.6576 13.6574C12.1571 15.1578 10.1221 16.0006 8.00021 16.0005C5.87833 16.0004 3.84339 15.1574 2.34306 13.6569ZM6.03006 4.96995C5.8878 4.83754 5.69975 4.76544 5.50543 4.76879C5.31111 4.77215 5.12566 4.85071 4.98806 4.98795C4.85082 5.12555 4.77226 5.311 4.7689 5.50532C4.76555 5.69964 4.83765 5.88769 4.97006 6.02995L6.94006 7.99995L4.97006 9.96995C4.87133 10.0616 4.79916 10.1782 4.76115 10.3075C4.72314 10.4367 4.72069 10.5738 4.75406 10.7044C4.78743 10.8349 4.85539 10.954 4.95078 11.0491C5.04617 11.1443 5.16545 11.2119 5.29606 11.2449C5.42644 11.2784 5.56341 11.276 5.69257 11.2382C5.82173 11.2004 5.93832 11.1284 6.03006 11.0299L8.00006 9.05995L9.97006 11.0299C10.0617 11.1287 10.1783 11.2008 10.3076 11.2389C10.4368 11.2769 10.5739 11.2793 10.7045 11.2459C10.835 11.2126 10.9541 11.1446 11.0492 11.0492C11.1444 10.9538 11.212 10.8346 11.2451 10.7039C11.2785 10.5736 11.2761 10.4366 11.2383 10.3074C11.2005 10.1783 11.1285 10.0617 11.0301 9.96995L9.06006 7.99995L11.0301 6.02995C11.1288 5.93828 11.201 5.82167 11.239 5.69243C11.277 5.56318 11.2794 5.42607 11.2461 5.29554C11.2127 5.16502 11.1447 5.04591 11.0493 4.95077C10.954 4.85563 10.8347 4.78798 10.7041 4.75495C10.5737 4.72153 10.4367 4.72386 10.3075 4.7617C10.1784 4.79953 10.0618 4.87147 9.97006 4.96995L8.00006 6.93995L6.03006 4.96995Z" fill="#F85149"/>
</g>
<defs>
<clipPath id="clip0_225_2">
<rect width="16" height="16" fill="white"/>
</clipPath>
</defs>
</svg>
