<svg width="29" height="29" viewBox="0 0 29 29" fill="none" xmlns="http://www.w3.org/2000/svg">
<g clip-path="url(#clip0_10_7)">
<path fill-rule="evenodd" clip-rule="evenodd" d="M14.4568 0.295898C6.46256 0.295898 0 6.8061 0 14.8601C0 21.2981 4.14079 26.7477 9.88515 28.6765C10.6033 28.8215 10.8664 28.3632 10.8664 27.9776C10.8664 27.6399 10.8427 26.4826 10.8427 25.2767C6.82121 26.145 5.98377 23.5406 5.98377 23.5406C5.33748 21.8527 4.37989 21.4188 4.37989 21.4188C3.06364 20.5267 4.47577 20.5267 4.47577 20.5267C5.93583 20.6231 6.70196 22.0216 6.70196 22.0216C7.99424 24.2398 10.0766 23.6131 10.9144 23.2272C11.0339 22.2868 11.4171 21.6358 11.824 21.2741C8.61655 20.9365 5.2419 19.6827 5.2419 14.0884C5.2419 12.4969 5.81598 11.1949 6.72563 10.1822C6.58211 9.82062 6.07935 8.32535 6.86945 6.32405C6.86945 6.32405 8.09011 5.93817 10.8424 7.81903C12.0208 7.50023 13.2361 7.33805 14.4568 7.33668C15.6775 7.33668 16.9218 7.50565 18.0708 7.81903C20.8235 5.93817 22.0441 6.32405 22.0441 6.32405C22.8342 8.32535 22.3312 9.82062 22.1877 10.1822C23.1213 11.1949 23.6717 12.4969 23.6717 14.0884C23.6717 19.6827 20.297 20.9122 17.0656 21.2741C17.5923 21.7322 18.0469 22.6002 18.0469 23.9747C18.0469 25.9278 18.0232 27.4952 18.0232 27.9773C18.0232 28.3632 18.2866 28.8215 19.0045 28.6768C24.7488 26.7474 28.8896 21.2981 28.8896 14.8601C28.9133 6.8061 22.4271 0.295898 14.4568 0.295898Z" fill="white"/>
</g>
<defs>
<clipPath id="clip0_10_7">
<rect width="29" height="28.4082" fill="white" transform="translate(0 0.295898)"/>
</clipPath>
</defs>
</svg>
