<svg width="16" height="16" viewBox="0 0 16 16" fill="none" xmlns="http://www.w3.org/2000/svg">
<path d="M14.6666 2.66667H11.3333V1.33333C11.3333 0.979711 11.1928 0.640573 10.9427 0.390524C10.6927 0.140476 10.3535 0 9.99992 0L5.99992 0C5.6463 0 5.30716 0.140476 5.05711 0.390524C4.80706 0.640573 4.66659 0.979711 4.66659 1.33333V2.66667H1.33325V4H2.66659V14C2.66659 14.5304 2.8773 15.0391 3.25237 15.4142C3.62744 15.7893 4.13615 16 4.66659 16H11.3333C11.8637 16 12.3724 15.7893 12.7475 15.4142C13.1225 15.0391 13.3333 14.5304 13.3333 14V4H14.6666V2.66667ZM5.99992 1.33333H9.99992V2.66667H5.99992V1.33333ZM11.9999 14C11.9999 14.1768 11.9297 14.3464 11.8047 14.4714C11.6796 14.5964 11.5101 14.6667 11.3333 14.6667H4.66659C4.48977 14.6667 4.32021 14.5964 4.19518 14.4714C4.07016 14.3464 3.99992 14.1768 3.99992 14V4H11.9999V14Z" fill="#848D97"/>
<path d="M7.33333 6.66663H6V12H7.33333V6.66663Z" fill="#848D97"/>
<path d="M9.99984 6.66663H8.6665V12H9.99984V6.66663Z" fill="#848D97"/>
</svg>
