<svg width="16" height="16" viewBox="0 0 16 16" fill="none" xmlns="http://www.w3.org/2000/svg">
<path d="M13.7801 4.22001C13.9205 4.36064 13.9994 4.55126 13.9994 4.75001C13.9994 4.94876 13.9205 5.13939 13.7801 5.28001L6.53007 12.53C6.38944 12.6705 6.19882 12.7494 6.00007 12.7494C5.80132 12.7494 5.61069 12.6705 5.47007 12.53L2.22007 9.28001C2.08766 9.13775 2.01555 8.9497 2.01891 8.75538C2.02227 8.56106 2.10082 8.37561 2.23807 8.23801C2.37567 8.10077 2.56112 8.02221 2.75544 8.01886C2.94975 8.0155 3.1378 8.0876 3.28007 8.22001L6.00007 10.94L12.7201 4.22001C12.8607 4.07956 13.0513 4.00067 13.2501 4.00067C13.4488 4.00067 13.6394 4.07956 13.7801 4.22001Z" fill="#848D97"/>
</svg>
