<svg width="17" height="17" viewBox="0 0 17 17" fill="none" xmlns="http://www.w3.org/2000/svg">
<path d="M4.72701 8.177L8.12301 11.573C8.14623 11.5963 8.17382 11.6148 8.2042 11.6274C8.23457 11.64 8.26713 11.6464 8.30001 11.6464C8.3329 11.6464 8.36546 11.64 8.39583 11.6274C8.4262 11.6148 8.45379 11.5963 8.47701 11.573L11.873 8.177C11.9081 8.14204 11.9319 8.09745 11.9416 8.0489C11.9513 8.00034 11.9464 7.95001 11.9274 7.90427C11.9084 7.85853 11.8763 7.81945 11.8351 7.79199C11.7939 7.76453 11.7455 7.74991 11.696 7.75H4.90401C4.8545 7.74991 4.80608 7.76453 4.76489 7.79199C4.72369 7.81945 4.69158 7.85853 4.67262 7.90427C4.65366 7.95001 4.64871 8.00034 4.65839 8.0489C4.66808 8.09745 4.69196 8.14204 4.72701 8.177Z" fill="#848D97"/>
</svg>
