<svg width="16" height="16" viewBox="0 0 16 16" fill="none" xmlns="http://www.w3.org/2000/svg">
<path d="M4.53002 4.75C4.53002 4.55109 4.60904 4.36032 4.74969 4.21967C4.89034 4.07902 5.08111 4 5.28002 4H11.29C11.4889 4 11.6797 4.07902 11.8204 4.21967C11.961 4.36032 12.04 4.55109 12.04 4.75V10.76C12.04 10.9589 11.961 11.1497 11.8204 11.2903C11.6797 11.431 11.4889 11.51 11.29 11.51C11.0911 11.51 10.9003 11.431 10.7597 11.2903C10.619 11.1497 10.54 10.9589 10.54 10.76V6.56L5.28002 11.821C5.18835 11.9197 5.07175 11.9919 4.9425 12.0299C4.81325 12.0679 4.67614 12.0704 4.54562 12.037C4.41509 12.0036 4.29598 11.9357 4.20085 11.8403C4.10571 11.7449 4.03805 11.6256 4.00502 11.495C3.9716 11.3646 3.97394 11.2277 4.01177 11.0985C4.0496 10.9693 4.12154 10.8527 4.22002 10.761L9.48002 5.5H5.28002C5.08111 5.5 4.89034 5.42098 4.74969 5.28033C4.60904 5.13968 4.53002 4.94891 4.53002 4.75Z" fill="#848D97"/>
</svg>
