<svg width="16" height="17" viewBox="0 0 16 17" fill="none" xmlns="http://www.w3.org/2000/svg">
<g clip-path="url(#clip0_17_7)">
<path d="M2 3.01599C2 2.35295 2.26339 1.71707 2.73223 1.24822C3.20108 0.779383 3.83696 0.515991 4.5 0.515991L13.25 0.515991C13.4489 0.515991 13.6397 0.595009 13.7803 0.735661C13.921 0.876313 14 1.06708 14 1.26599V13.766C14 13.9649 13.921 14.1557 13.7803 14.2963C13.6397 14.437 13.4489 14.516 13.25 14.516H10.75C10.5511 14.516 10.3603 14.437 10.2197 14.2963C10.079 14.1557 10 13.9649 10 13.766C10 13.5671 10.079 13.3763 10.2197 13.2357C10.3603 13.095 10.5511 13.016 10.75 13.016H12.5V11.016H4.5C4.30308 11.016 4.11056 11.0742 3.94657 11.1832C3.78257 11.2922 3.65442 11.4472 3.57816 11.6288C3.50191 11.8103 3.48096 12.0103 3.51793 12.2038C3.5549 12.3972 3.64816 12.5754 3.786 12.716C3.85495 12.7864 3.90935 12.8697 3.94611 12.9611C3.98287 13.0525 4.00126 13.1502 4.00024 13.2488C3.99922 13.3473 3.9788 13.4446 3.94016 13.5353C3.90151 13.6259 3.84539 13.708 3.775 13.777C3.70461 13.8459 3.62133 13.9003 3.52992 13.9371C3.43851 13.9739 3.34075 13.9923 3.24222 13.9912C3.1437 13.9902 3.04634 13.9698 2.95571 13.9311C2.86508 13.8925 2.78295 13.8364 2.714 13.766C2.25571 13.2989 1.99929 12.6704 2 12.016V3.01599ZM12.5 2.01599H4.5C4.23478 2.01599 3.98043 2.12135 3.79289 2.30888C3.60536 2.49642 3.5 2.75077 3.5 3.01599V9.72399C3.81534 9.58619 4.15586 9.51536 4.5 9.51599H12.5V2.01599ZM5 12.766C5 12.6997 5.02634 12.6361 5.07322 12.5892C5.12011 12.5423 5.1837 12.516 5.25 12.516H8.75C8.81631 12.516 8.87989 12.5423 8.92678 12.5892C8.97366 12.6361 9 12.6997 9 12.766V16.016C9 16.0624 8.98707 16.1079 8.96266 16.1474C8.93826 16.1869 8.90333 16.2188 8.8618 16.2396C8.82028 16.2604 8.77379 16.2692 8.72755 16.265C8.68131 16.2608 8.63714 16.2438 8.6 16.216L7.15 15.129C7.10679 15.0964 7.05413 15.0787 7 15.0787C6.94587 15.0787 6.89321 15.0964 6.85 15.129L5.4 16.216C5.36286 16.2438 5.31869 16.2608 5.27245 16.265C5.22621 16.2692 5.17972 16.2604 5.1382 16.2396C5.09667 16.2188 5.06175 16.1869 5.03734 16.1474C5.01293 16.1079 5 16.0624 5 16.016V12.766Z" fill="#848D97"/>
</g>
<defs>
<clipPath id="clip0_17_7">
<rect width="16" height="16" fill="white" transform="translate(0 0.515991)"/>
</clipPath>
</defs>
</svg>
