<svg width="16" height="16" viewBox="0 0 16 16" fill="none" xmlns="http://www.w3.org/2000/svg">
<path d="M3.72007 3.72006C3.8607 3.57961 4.05132 3.50072 4.25007 3.50072C4.44882 3.50072 4.63945 3.57961 4.78007 3.72006L8.00007 6.94006L11.2201 3.72006C11.3117 3.62133 11.4283 3.54916 11.5576 3.51115C11.6868 3.47313 11.824 3.47068 11.9545 3.50406C12.085 3.53743 12.2041 3.60539 12.2992 3.70078C12.3944 3.79617 12.462 3.91545 12.4951 4.04606C12.5285 4.17643 12.5262 4.31341 12.4883 4.44257C12.4505 4.57173 12.3786 4.68832 12.2801 4.78006L9.06007 8.00006L12.2801 11.2201C12.3788 11.3117 12.451 11.4283 12.489 11.5576C12.527 11.6868 12.5294 11.8239 12.4961 11.9545C12.4627 12.085 12.3947 12.2041 12.2994 12.2992C12.204 12.3944 12.0847 12.462 11.9541 12.4951C11.8237 12.5285 11.6867 12.5261 11.5576 12.4883C11.4284 12.4505 11.3118 12.3785 11.2201 12.2801L8.00007 9.06006L4.78007 12.2801C4.63781 12.4125 4.44976 12.4846 4.25544 12.4812C4.06113 12.4779 3.87568 12.3993 3.73807 12.2621C3.60083 12.1245 3.52227 11.939 3.51892 11.7447C3.51556 11.5504 3.58766 11.3623 3.72007 11.2201L6.94007 8.00006L3.72007 4.78006C3.57962 4.63943 3.50073 4.44881 3.50073 4.25006C3.50073 4.05131 3.57962 3.86068 3.72007 3.72006Z" fill="#848D97"/>
</svg>
