<svg width="16" height="17" viewBox="0 0 16 17" fill="none" xmlns="http://www.w3.org/2000/svg">
<g clip-path="url(#clip0_17_86)">
<path d="M8 16.5C5.87827 16.5 3.84344 15.6571 2.34315 14.1569C0.842855 12.6566 0 10.6217 0 8.5C0 6.37827 0.842855 4.34344 2.34315 2.84315C3.84344 1.34285 5.87827 0.5 8 0.5C10.1217 0.5 12.1566 1.34285 13.6569 2.84315C15.1571 4.34344 16 6.37827 16 8.5C16 10.6217 15.1571 12.6566 13.6569 14.1569C12.1566 15.6571 10.1217 16.5 8 16.5ZM11.78 6.78C11.9124 6.63774 11.9845 6.44969 11.9812 6.25537C11.9778 6.06105 11.8992 5.8756 11.762 5.738C11.6244 5.60076 11.4389 5.5222 11.2446 5.51884C11.0503 5.51549 10.8623 5.58759 10.72 5.72L6.75 9.69L5.28 8.22C5.13774 8.08759 4.94969 8.01549 4.75537 8.01884C4.56105 8.0222 4.3756 8.10076 4.238 8.238C4.10076 8.3756 4.0222 8.56105 4.01884 8.75537C4.01549 8.94969 4.08759 9.13774 4.22 9.28L6.22 11.28C6.36063 11.4205 6.55125 11.4993 6.75 11.4993C6.94875 11.4993 7.13937 11.4205 7.28 11.28L11.78 6.78Z" fill="#3FB950"/>
</g>
<defs>
<clipPath id="clip0_17_86">
<rect width="16" height="16" fill="white" transform="translate(0 0.5)"/>
</clipPath>
</defs>
</svg>
